<svg id="Layer_1" enable-background="new 0 0 100 100" viewBox="0 0 100 100" xmlns="http://www.w3.org/2000/svg"><path d="m49.9893684 97.4975433c-26.8746853-.106987-48.2290688-22.1137543-47.4499245-48.923317.7442582-25.6140938 21.7160454-46.2544518 47.8290291-46.07304 26.2990456.1837385 47.3708458 21.6706924 47.1103554 47.8825188-.260498 26.1315918-21.6776809 47.378975-47.48946 47.1138382zm1.0070687-54.2587127c-4.8132553.1581573-9.117157 1.8245964-13.0907974 4.4515915-.3360786.2221146-.6582031.4965553-.9128761.8070526-.9070625 1.1070862-.5965691 2.044384.7709999 2.4013939.5256348.1372223 1.0652199.2314186 1.5815506.3965492 2.1839294.696579 2.7723579 1.7676125 2.2188187 4.0317841-1.3466415 5.5040131-2.7200279 11.0022202-4.0434151 16.5120544-.9814911 4.088768 1.0896416 7.4321136 5.0144386 7.7356339 5.8086967.4477158 10.9929199-1.46875 15.6561623-4.8341904.4942322-.3558426.8768272-1.2419815.8244972-1.8397064-.0313988-.3628235-.9884682-.6616974-1.5489883-.9524231-.2360687-.1221085-.5221443-.1453629-.7849579-.2162933-2.5979271-.694252-3.273571-1.7804031-2.6444397-4.3725204 1.3024483-5.3749352 2.6874695-10.7301025 3.903862-16.1248055.2884026-1.2768669.3081703-2.7444534-.0151176-4.0038757-.7244836-2.8049203-3.179371-4.1015588-6.9297372-3.9922448zm12.0848884-16.4632149c.0069771-4.9609413-3.8271141-8.8752728-8.7264252-8.9078331-4.9818764-.0337238-8.9822578 3.9271221-8.9403954 8.8496895.0418625 4.9062843 3.9410782 8.7578239 8.8845749 8.7741051 4.8202325.0162734 8.7741052-3.9085217 8.7822457-8.7159615z"/></svg>